<?xml version="1.0" encoding="UTF-8" standalone="no"?>
<svg width="32px" height="32px" viewBox="0 0 32 32" version="1.1" xmlns="http://www.w3.org/2000/svg" xmlns:xlink="http://www.w3.org/1999/xlink">
    <!-- Generator: Sketch 41.2 (35397) - http://www.bohemiancoding.com/sketch -->
    <title>Email</title>
    <desc>Created with Sketch.</desc>
    <defs></defs>
    <g id="Desktop-Screens" stroke="none" stroke-width="1" fill="none" fill-rule="evenodd">
        <g id="Desktop-Posts" transform="translate(-752.000000, -624.000000)" fill="#C74F4F">
            <g id="Social-Media" transform="translate(0.000000, 592.000000)">
                <g id="Social-Icons" transform="translate(656.000000, 32.000000)">
                    <path d="M112,2.66666667 C119.352,2.66666667 125.333333,8.648 125.333333,16 C125.333333,23.352 119.352,29.3333333 112,29.3333333 C104.648,29.3333333 98.6666667,23.352 98.6666667,16 C98.6666667,8.648 104.648,2.66666667 112,2.66666667 L112,2.66666667 Z M112,5.92118946e-16 C103.164,5.92118946e-16 96,7.164 96,16 C96,24.836 103.164,32 112,32 C120.836,32 128,24.836 128,16 C128,7.164 120.836,0 112,0 L112,5.92118946e-16 Z M112,16.7333333 L104.010667,10.64 L119.988,10.64 L112,16.7333333 Z M112,18.4506667 L104,12.2786667 L104,21.3066667 L120,21.3066667 L120,12.2786667 L112,18.4506667 L112,18.4506667 Z" id="Email"></path>
                </g>
            </g>
        </g>
    </g>
</svg>