<?xml version="1.0" encoding="UTF-8" standalone="no"?>
<svg width="32px" height="32px" viewBox="0 0 32 32" version="1.1" xmlns="http://www.w3.org/2000/svg" xmlns:xlink="http://www.w3.org/1999/xlink">
    <!-- Generator: Sketch 41.2 (35397) - http://www.bohemiancoding.com/sketch -->
    <title>Facebook</title>
    <desc>Created with Sketch.</desc>
    <defs></defs>
    <g id="Desktop-Screens" stroke="none" stroke-width="1" fill="none" fill-rule="evenodd">
        <g id="Desktop-Posts" transform="translate(-704.000000, -624.000000)" fill="#3B5998">
            <g id="Social-Media" transform="translate(0.000000, 592.000000)">
                <g id="Social-Icons" transform="translate(656.000000, 32.000000)">
                    <path d="M64,2.66666667 C71.352,2.66666667 77.3333333,8.648 77.3333333,16 C77.3333333,23.352 71.352,29.3333333 64,29.3333333 C56.648,29.3333333 50.6666667,23.352 50.6666667,16 C50.6666667,8.648 56.648,2.66666667 64,2.66666667 Z M64,0 C55.164,0 48,7.164 48,16 C48,24.836 55.164,32 64,32 C72.836,32 80,24.836 80,16 C80,7.164 72.836,0 64,0 Z M61.3333333,13.3333333 L58.6666667,13.3333333 L58.6666667,16 L61.3333333,16 L61.3333333,24 L65.3333333,24 L65.3333333,16 L67.76,16 L68,13.3333333 L65.3333333,13.3333333 L65.3333333,12.2226667 C65.3333333,11.5853333 65.4613333,11.3333333 66.0773333,11.3333333 L68,11.3333333 L68,8 L64.7946667,8 C62.3973333,8 61.3333333,9.056 61.3333333,11.0773333 L61.3333333,13.3333333 Z" id="Facebook"></path>
                </g>
            </g>
        </g>
    </g>
</svg>